<svg version="1.1" id="Layer_1" xmlns="http://www.w3.org/2000/svg" xmlns:xlink="http://www.w3.org/1999/xlink" x="0px" y="0px" viewBox="0 0 500 500" style="width: 188px;" xml:space="preserve" data-imageid="moving-forward-96" imageName="Moving Forward" class="illustrations_image">
<style type="text/css">
	.st0_moving-forward-96{fill:#D1D3D4;}
	.st1_moving-forward-96{fill:#FFFFFF;}
	.st2_moving-forward-96{fill:#231F20;}
	.st3_moving-forward-96{fill:#68E1FD;}
</style>
<g id="arrow_bg_moving-forward-96">
	<path class="st0_moving-forward-96" d="M135.6,412.1l-30.3-23.6c-0.6-0.4-1.3-0.3-1.8,0.2c-0.2,0.2-0.2,0.5-0.2,0.8v10.8c0,0.7-0.6,1.2-1.2,1.2H47.2&#10;&#9;&#9;c-0.8,0-1.5,0.7-1.5,1.5v20.1c0,0.8,0.7,1.5,1.5,1.5H102c0.7,0,1.2,0.6,1.2,1.2v10.8c0,0.7,0.6,1.2,1.2,1.2c0.3,0,0.5-0.1,0.8-0.2&#10;&#9;&#9;l30.3-23.6c0.5-0.4,0.7-1.2,0.2-1.7C135.7,412.2,135.7,412.2,135.6,412.1z"/>
	<path class="st0_moving-forward-96" d="M363.1,63.3l-30.3-23.6c-0.6-0.4-1.3-0.3-1.8,0.2c-0.2,0.2-0.2,0.5-0.2,0.8v10.8c0,0.7-0.6,1.2-1.2,1.2h-54.8&#10;&#9;&#9;c-0.8,0-1.5,0.7-1.5,1.5v20.1c0,0.8,0.7,1.5,1.5,1.5h54.8c0.7,0,1.2,0.6,1.2,1.2v10.8c0,0.7,0.6,1.2,1.2,1.2c0.3,0,0.5-0.1,0.8-0.2&#10;&#9;&#9;l30.3-23.6c0.5-0.4,0.7-1.2,0.2-1.7C363.2,63.5,363.2,63.4,363.1,63.3z"/>
</g>
<g id="character_moving-forward-96">
	<path class="st1_moving-forward-96" d="M194.1,250.8c0,0-15.9,126.2-36.1,129.1s-77.9-44-77.9-44L94,307.2c0,0,33,14.1,37.3,13&#10;&#9;&#9;c10.9-2.7,13-77.9,13-77.9L194.1,250.8z"/>
	<path class="st2_moving-forward-96" d="M156.1,380.8c-8.9,0-24.1-7.1-45-21.2c-16.8-11.2-31.3-23-31.4-23.1c-0.3-0.2-0.4-0.6-0.2-0.9l13.9-28.7&#10;&#9;&#9;c0.2-0.4,0.6-0.5,1-0.4c0,0,0,0,0,0c13.2,5.6,33.9,13.7,36.9,13c2.4-0.6,6.8-6.5,10-39.3c1.9-18.9,2.4-37.7,2.4-37.9&#10;&#9;&#9;c0-0.2,0.1-0.4,0.3-0.6c0.2-0.1,0.4-0.2,0.6-0.2l49.7,8.4c0.4,0.1,0.7,0.4,0.6,0.8c-0.6,5.2-16.2,126.9-36.7,129.8&#10;&#9;&#9;C157.4,380.7,156.8,380.8,156.1,380.8z M81,335.7c5.5,4.4,58.2,46.1,76.9,43.5c5.5-0.8,14.3-12.7,25-65.1&#10;&#9;&#9;c5.9-28.9,9.7-57.9,10.4-62.7l-48.2-8.2c-0.3,10.9-2.8,75.1-13.5,77.8c-0.2,0.1-0.5,0.1-0.7,0.1c-5.9,0-31.2-10.6-36.5-12.8&#10;&#9;&#9;L81,335.7z"/>
	<polygon class="st1_moving-forward-96" points="195.1,267.2 279.6,420.9 334.8,391.6 252.5,257.5 &#9;"/>
	<path class="st2_moving-forward-96" d="M279.6,421.6c-0.3,0-0.5-0.1-0.7-0.4l-84.4-153.7c-0.1-0.2-0.1-0.5,0-0.7c0.1-0.2,0.3-0.4,0.6-0.4l57.4-9.7&#10;&#9;&#9;c0.3-0.1,0.6,0.1,0.8,0.4l82.2,134.2c0.2,0.3,0.1,0.8-0.2,1c0,0,0,0-0.1,0l-55.2,29.2C279.8,421.6,279.7,421.6,279.6,421.6z&#10;&#9;&#9; M196.3,267.8l83.6,152.1l53.8-28.5l-81.6-133.1L196.3,267.8z"/>
	<path class="st2_moving-forward-96" d="M257.9,145.1c-7.6-8.6-35.6-20.2-75.8-24.4c-28.9-3-42-0.3-48.1,36.1c-6.4,38.6,16.5,101.1,16.5,101.1&#10;&#9;&#9;l148-18.9C298.5,239.1,277.9,167.9,257.9,145.1z"/>
	<path class="st1_moving-forward-96" d="M194.7,131.3v-12.9c0,0,18.7,3.8,16.3-17.3s-10.4-29.7-11.8-29.2L173,79.6l-2.5,49.5&#10;&#9;&#9;C170.5,129.1,183.5,149.3,194.7,131.3z"/>
	<path class="st2_moving-forward-96" d="M184.2,139.5c-7.9,0-14.1-9.6-14.4-10c-0.1-0.1-0.1-0.3-0.1-0.4l2.5-49.5c0-0.3,0.2-0.6,0.5-0.7l26.2-7.8&#10;&#9;&#9;c0.5-0.1,1,0,1.4,0.4c2.2,1.5,9.1,10.1,11.3,29.5c0.8,6.8-0.6,11.9-3.9,15c-4.2,3.8-10.1,3.5-12.4,3.2v12.1c0,0.1,0,0.3-0.1,0.4&#10;&#9;&#9;c-3.2,5.2-6.9,7.8-11,7.9L184.2,139.5z M171.2,128.9c0.9,1.3,6.5,9.1,13,9.1h0.1c3.5,0,6.7-2.4,9.6-7v-12.7c0-0.2,0.1-0.4,0.3-0.6&#10;&#9;&#9;c0.2-0.1,0.4-0.2,0.6-0.2c0.1,0,7.4,1.4,11.9-2.8c3-2.8,4.2-7.4,3.4-13.7c-2.2-19.8-9.4-28.1-10.9-28.6l-25.5,7.7L171.2,128.9z"/>
	<path class="st1_moving-forward-96" d="M174.1,93.4c-0.9-4-6.8-5.4-9.8-2.6s-2.3,8.3,0.9,10.8s8.1,2.3,11.4-0.1"/>
	<path class="st2_moving-forward-96" d="M170.7,104.3c-2.1,0-4.2-0.7-5.9-2c-1.9-1.5-3-3.8-3.1-6.2c-0.1-2.1,0.6-4.2,2.1-5.7c1.8-1.6,4.4-2.1,6.7-1.3&#10;&#9;&#9;c2.1,0.5,3.8,2.2,4.3,4.3c0.1,0.4-0.2,0.8-0.6,0.9c-0.4,0.1-0.8-0.2-0.9-0.6c-0.4-1.6-1.7-2.8-3.3-3.2c-1.8-0.6-3.8-0.2-5.2,1&#10;&#9;&#9;c-1.2,1.2-1.8,2.9-1.7,4.6c0.1,2,1,3.9,2.5,5.1c2.8,2.2,7.3,2.2,10.6-0.1c0.3-0.2,0.8-0.2,1.1,0.2c0.2,0.3,0.1,0.8-0.2,1&#10;&#9;&#9;C175.3,103.5,173,104.2,170.7,104.3z"/>
	<path class="st1_moving-forward-96" d="M191.5,88.6c1.6,2,3.1,4.1,4.5,6.3c0.6,1,1.3,2.2,0.9,3.4c-0.5,1-1.4,1.6-2.5,1.8c-0.9,0.3-1.8,0.1-2.4-0.6"/>
	<path class="st2_moving-forward-96" d="M193.5,100.8c-0.9,0.1-1.8-0.4-2.3-1.1c-0.2-0.4-0.1-0.8,0.3-1c0.4-0.2,0.8-0.1,1,0.3c0.2,0.4,1,0.4,1.6,0.3&#10;&#9;&#9;c0.5-0.1,1.6-0.4,1.9-1.3s-0.2-1.8-0.8-2.7c-1.4-2.2-2.8-4.3-4.4-6.3c-0.2-0.3-0.2-0.7,0.1-1c0.3-0.3,0.8-0.2,1,0.1c0,0,0,0,0,0&#10;&#9;&#9;c1.6,2,3.1,4.2,4.5,6.3c0.8,1.2,1.5,2.6,0.9,4c-0.6,1.2-1.7,2-3,2.2C194.2,100.8,193.8,100.8,193.5,100.8z"/>
	
		<ellipse transform="matrix(1 -1.047197e-03 1.047197e-03 1 -9.121943e-02 0.1946)" class="st2_moving-forward-96" cx="185.8" cy="87.2" rx="1.1" ry="1.6"/>
	
		<ellipse transform="matrix(0.9961 -8.854660e-02 8.854660e-02 0.9961 -6.8453 17.8894)" class="st2_moving-forward-96" cx="198.2" cy="86.1" rx="1.1" ry="1.6"/>
	<path class="st2_moving-forward-96" d="M194.7,118.4c0,0-8.1-2-13.2-5.2c0,0-0.2,8.6,13,12.8L194.7,118.4z"/>
	<path class="st2_moving-forward-96" d="M194.5,126.7c-0.1,0-0.2,0-0.2,0c-13.6-4.2-13.6-13.1-13.5-13.5c0-0.3,0.2-0.5,0.4-0.6c0.2-0.1,0.5-0.1,0.8,0&#10;&#9;&#9;c4.9,3.1,12.9,5.1,13,5.1c0.3,0.1,0.6,0.4,0.6,0.8l-0.2,7.6c0,0.2-0.1,0.5-0.3,0.6C194.9,126.6,194.7,126.7,194.5,126.7z&#10;&#9;&#9; M182.4,114.6c0.5,2.4,2.7,7.3,11.4,10.3l0.1-6C189.9,117.9,186.1,116.4,182.4,114.6z"/>
	<path class="st3_moving-forward-96 targetColor" d="M473.7,225.1L329.2,112.5c-2.6-2-6.4-1.5-8.4,1.1c-0.8,1-1.2,2.3-1.2,3.6v51.5c0,3.3-2.7,6-6,6H52.2&#10;&#9;&#9;c-4,0-7.2,3.2-7.2,7.2v95.9c0,4,3.2,7.2,7.2,7.2h261.3c3.3,0,6,2.7,6,6v51.5c0,3.3,2.8,6,6.1,5.9c1.3,0,2.5-0.4,3.6-1.2&#10;&#9;&#9;l144.5-112.7c2.6-2.1,3-5.8,1-8.4C474.4,225.8,474,225.4,473.7,225.1z" style="fill: rgb(104, 225, 253);"/>
	<path class="st1_moving-forward-96" d="M129.1,141.2c0,0-50.1,7.9-52.7,39.1s21.8,93.3,21.8,93.3s5.5,18.4,7.5,16.4s-1-13.6-1-13.6s5.4,14.4,7.3,11.1&#10;&#9;&#9;s-2.2-13.9-2.2-13.9s5.8,16.8,7.6,12.1s-1.5-13.5-1.5-13.5s4.1,15.8,6,11.7s-2-20.3-2-20.3s7.5,9.9,9,6.4s-7-9.2-8.8-16.8&#10;&#9;&#9;s-14.5-57-10.8-62.7s31.4-18.4,31.4-18.4"/>
	<path class="st2_moving-forward-96" d="M105.4,291c-0.1,0-0.2,0-0.3,0c-2.4-0.6-6.1-12.1-7.6-17.1c0-0.1-6.2-15.7-11.9-35&#10;&#9;&#9;c-7.7-25.9-11.1-45.6-10-58.6c2.6-31.4,52.9-39.7,53.4-39.8c0.4-0.1,0.8,0.2,0.8,0.6c0,0,0,0,0,0c0.1,0.4-0.2,0.8-0.6,0.9&#10;&#9;&#9;c-8.7,1.6-17.2,4.2-25.3,7.8c-11.5,5.3-25.6,14.9-26.9,30.6c-2.5,30.7,21.6,92.4,21.8,93c2.1,7.1,5.1,14.9,6.4,16&#10;&#9;&#9;c0.8-1.4,0-7.6-1.3-12.8c-0.1-0.4,0.1-0.8,0.5-0.9c0.4-0.1,0.8,0.1,0.9,0.5c2.2,5.8,4.8,10.8,5.8,11.1c0,0,0,0,0.1-0.1&#10;&#9;&#9;c1.1-2-0.4-7.7-1.6-11.3c-0.2-0.7-0.5-1.4-0.7-2c-0.1-0.4,0.1-0.8,0.5-0.9c0.3-0.1,0.7,0.1,0.9,0.4c0.1,0.3,0.4,1,0.7,1.9&#10;&#9;&#9;c2.1,5.5,4.3,10.1,5.3,10.5c0.1-0.1,0.1-0.2,0.2-0.3c0.8-2.2,0.4-5.5-0.2-8.2c-0.5-1.7-1-3.4-1.4-4.8c-0.1-0.4,0.1-0.8,0.5-0.9&#10;&#9;&#9;c0.4-0.1,0.8,0.1,0.9,0.5c0.6,1.5,1,3.1,1.4,4.7c1.2,3.8,2.5,6.6,3.2,7.1c0-0.1,0.1-0.1,0.1-0.2c1.5-3.2-1-15.4-2.1-19.8&#10;&#9;&#9;c-0.1-0.4,0.1-0.8,0.5-0.9c0.3-0.1,0.6,0,0.8,0.3c2.6,3.4,6.1,7,7.4,6.9c0.1,0,0.2,0,0.3-0.3c0.6-1.4-1.1-3.6-3.2-6.2&#10;&#9;&#9;c-2.1-2.8-4.8-6.2-5.7-10.1c-0.2-0.6-0.4-1.5-0.6-2.6c-9.3-37.6-12.5-56.9-10.1-60.7c3.8-5.9,30.6-18.2,31.8-18.7&#10;&#9;&#9;c0.4-0.2,0.8,0,1,0.4c0,0,0,0,0,0c0.2,0.4,0,0.8-0.3,1c0,0,0,0,0,0c-0.3,0.1-27.6,12.7-31.1,18.2c-1.5,2.3-0.9,14.5,10.2,59.5&#10;&#9;&#9;c0.3,1.1,0.5,2,0.6,2.6c0.9,3.6,3.3,6.7,5.5,9.5c2.4,3.1,4.3,5.5,3.3,7.7c-0.2,0.6-0.8,1.1-1.5,1.2c-1.9,0.2-4.8-2.6-6.8-4.9&#10;&#9;&#9;c1.1,5,2.8,14.4,1.3,17.7c-0.5,1-1.1,1.2-1.5,1.1c-0.8-0.1-1.6-1.1-2.4-2.6c0,1.1-0.2,2.2-0.6,3.3c-0.4,1.1-1.1,1.3-1.5,1.3&#10;&#9;&#9;c-1,0-2.2-1.5-3.4-3.6c0.2,1.4,0.1,2.9-0.5,4.2c-0.3,0.6-0.8,0.9-1.4,0.9c-1.3-0.1-2.9-2.6-4.3-5.4c0.4,3.1,0.5,6.2-0.6,7.2&#10;&#9;&#9;C106.1,290.9,105.8,291,105.4,291z M105.5,289.5L105.5,289.5z"/>
	<path class="st2_moving-forward-96" d="M160,88.7c-0.3,0-0.6-0.2-0.7-0.6l-3.9-15.4c-0.3-0.8-0.3-1.8-0.1-2.6c0.5-0.9,1.2-1.7,2.2-2.1&#10;&#9;&#9;c16.8-9.8,34.1-19.2,51.5-28c0.8-0.4,2.2-1.1,3.6-0.5c0.7,0.3,1.2,0.9,1.4,1.6c0.3,1.2,0.1,2.6-0.5,3.7c-0.2,0.4-0.5,0.8-0.8,1.2&#10;&#9;&#9;c-0.3,0.4-0.6,0.9-0.9,1.4c1.1-0.4,2.3-0.5,3.4-0.1c0.7,0.2,1.3,0.8,1.5,1.5c0.2,0.7,0.3,1.5,0.1,2.3c-0.7,3.5-2.3,6.8-4.7,9.4&#10;&#9;&#9;c2.1,0.2,4.1,0.1,6.2-0.1c0.2,0,0.5,0.1,0.6,0.2c0.6,0.6,0.9,1.4,0.8,2.2c-0.1,2.2-2.2,4.2-2.8,4.8L207,76c-0.3,0.3-0.8,0.3-1.1,0&#10;&#9;&#9;s-0.3-0.8,0-1.1c0,0,0.1-0.1,0.1-0.1l9.8-8.7c1-0.9,2.3-2.5,2.3-3.7c0-0.3-0.1-0.6-0.2-0.8c-2.6,0.3-5.2,0.2-7.7-0.1&#10;&#9;&#9;c-0.3,0-0.5-0.2-0.6-0.5c-0.1-0.3,0-0.6,0.2-0.8c2.8-2.6,4.8-6,5.5-9.8c0.1-0.5,0.1-1,0-1.5c-0.1-0.3-0.4-0.5-0.7-0.7&#10;&#9;&#9;c-1.3-0.2-2.6,0-3.7,0.7c-0.2,0.1-0.5,0.1-0.8,0c-0.2-0.1-0.4-0.4-0.4-0.7c0.2-1.3,0.7-2.5,1.5-3.5c0.2-0.4,0.5-0.7,0.7-1.1&#10;&#9;&#9;c0.4-0.7,0.6-1.6,0.4-2.4c-0.1-0.3-0.3-0.5-0.6-0.7c-0.6-0.3-1.5,0.1-2.3,0.5c-17.3,8.8-34.6,18.2-51.4,28&#10;&#9;&#9;c-0.6,0.3-1.2,0.7-1.5,1.3c-0.1,0.6-0.1,1.2,0.1,1.7l3.9,15.4c0.1,0.4-0.1,0.8-0.5,0.9c0,0,0,0,0,0C160.1,88.7,160.1,88.7,160,88.7&#10;&#9;&#9;z"/>
	<path class="st1_moving-forward-96" d="M287.9,268.1c0.2-1.6,1.1-3.6,2.6-3.3c1,0.2,1.6,1.3,1.9,2.3c1.4,4.4,2.4,9,2.8,13.6c0.5-3.2,1.1-6.3,1.8-9.4&#10;&#9;&#9;c0.2-1.4,0.8-2.7,1.8-3.7c1-0.9,2.9-1,3.7,0.1c0.3,0.6,0.5,1.4,0.4,2.1l-0.1,9.9l2.1-8.6c0.3-1.1,0.6-2.2,1.6-2.7&#10;&#9;&#9;c1.8-0.8,3.3,1.7,3.1,3.6c-0.1,1.3-0.7,2.6-0.8,3.8l0.7,0.1c0.9-2.6,1.3-5.4,2-8.1c0.2-1,0.6-2,1.1-2.9c3.4-4.8,5.4,1.5,5.2,4.2&#10;&#9;&#9;c-0.3,5.3,0.1,10.7-1.9,15.8c-3.9,9.8-13.5,10.9-21.5,5.2C287,285,286.8,276.8,287.9,268.1z"/>
	<path class="st2_moving-forward-96" d="M304.1,294.4c-3.7-0.1-7.3-1.3-10.3-3.6c-7.8-5.5-7.9-14.2-6.8-22.8l0,0c0.1-1.3,0.7-2.6,1.7-3.5&#10;&#9;&#9;c0.5-0.4,1.2-0.5,1.8-0.4c1.5,0.3,2.1,1.7,2.5,2.8c0.9,2.9,1.6,5.8,2.1,8.7c0.3-1.5,0.6-3,1-4.4c0.2-1.5,0.9-3,2-4.1&#10;&#9;&#9;c0.8-0.7,1.8-1,2.9-0.9c0.8,0.1,1.5,0.5,1.9,1.1c0.4,0.8,0.6,1.6,0.5,2.5v3.4l0.5-2.3c0.2-0.9,0.6-2.6,2.1-3.2&#10;&#9;&#9;c0.8-0.4,1.8-0.2,2.5,0.3c0.7,0.6,1.2,1.3,1.5,2.2c0.2-0.9,0.4-1.7,0.6-2.6c0.2-1.1,0.7-2.2,1.3-3.1c1.5-2.1,2.8-2.2,3.7-1.9&#10;&#9;&#9;c2.1,0.7,3,4.6,2.9,6.6c-0.1,1.1-0.1,2.3-0.1,3.4c-0.1,4.2-0.2,8.5-1.8,12.6c-1.8,4.5-4.8,7.4-8.7,8.6&#10;&#9;&#9;C306.6,294.2,305.4,294.4,304.1,294.4z M288.6,268.2c-1,8.1-1,16.3,6.1,21.4c4.2,2.9,8.8,4,12.6,2.8c3.5-1,6.1-3.7,7.8-7.7&#10;&#9;&#9;c1.5-3.9,1.6-7.9,1.7-12.1c0-1.1,0.1-2.3,0.1-3.4c0.1-1.9-0.8-4.7-1.9-5.1c-0.7-0.2-1.5,0.8-2,1.4c-0.5,0.8-0.8,1.7-1,2.6&#10;&#9;&#9;c-0.3,1-0.5,2-0.7,3c-0.3,1.7-0.8,3.4-1.3,5.1c-0.1,0.4-0.5,0.6-0.9,0.5c0,0,0,0,0,0l-0.6-0.1c-0.2,0-0.4-0.1-0.5-0.3&#10;&#9;&#9;c-0.1-0.2-0.2-0.4-0.2-0.6c0.1-0.7,0.2-1.3,0.4-1.9c0.2-0.6,0.3-1.3,0.4-1.9c0.1-1-0.3-2-1-2.6c-0.3-0.2-0.7-0.3-1-0.2&#10;&#9;&#9;c-0.6,0.3-1,1.2-1.2,2.2l-2.1,8.6c-0.1,0.4-0.4,0.6-0.8,0.6c-0.4,0-0.7-0.4-0.6-0.8l0.1-9.9c0.1-0.6,0-1.2-0.3-1.7&#10;&#9;&#9;c-0.2-0.3-0.5-0.5-0.9-0.5c-0.6-0.1-1.2,0.1-1.7,0.5c-0.8,0.9-1.4,2.1-1.5,3.3c-0.7,3.1-1.4,6.2-1.8,9.3c0,0.4-0.4,0.7-0.8,0.6&#10;&#9;&#9;c-0.4,0-0.7-0.3-0.7-0.7c-0.4-4.6-1.3-9.1-2.7-13.5c-0.4-1.1-0.8-1.7-1.3-1.8c-0.2,0-0.5,0-0.6,0.2&#10;&#9;&#9;C289.1,266.4,288.7,267.3,288.6,268.2L288.6,268.2z"/>
	<path class="st2_moving-forward-96" d="M279.6,420.9c0,0,11.2,29.9,17.7,29.9c4.9,0,52.4-30.9,75.4-46.1c2.4-1.6,3.1-4.9,1.5-7.3&#10;&#9;&#9;c-0.9-1.3-2.3-2.2-3.9-2.3l-35.5-3.4L279.6,420.9z"/>
	<path class="st2_moving-forward-96" d="M94,307.2c0,0-16.8-13-19.5-8.7s-24.9,45.5-20,46.5s25.6-9.2,25.6-9.2L94,307.2z"/>
	<path class="st2_moving-forward-96" d="M162,120.2c-1.1,0-35,5.2-61.7,22.2l20.6,45.1l37.9-16.6L162,120.2z"/>
	<path class="st1_moving-forward-96" d="M230.3,175.2c-0.4,0-0.7-0.3-0.7-0.6l-3.1-18.8c-0.1-0.4,0.2-0.8,0.6-0.8c0.4-0.1,0.8,0.2,0.8,0.6l3.1,18.8&#10;&#9;&#9;c0.1,0.4-0.2,0.8-0.6,0.9L230.3,175.2z"/>
	<path class="st1_moving-forward-96" d="M197.9,108.4c0,0-14.1,1.3-16.2-13.5"/>
	<path class="st2_moving-forward-96" d="M196.6,109.2c-5.4,0-14.1-2.9-15.7-14.2c-0.1-0.4,0.2-0.8,0.6-0.9c0.4-0.1,0.8,0.2,0.9,0.6c0,0,0,0.1,0,0.1&#10;&#9;&#9;c2,14,14.9,12.9,15.4,12.9c0.4,0,0.8,0.3,0.8,0.7s-0.3,0.8-0.7,0.8C197.5,109.2,197.1,109.2,196.6,109.2z"/>
	<path class="st1_moving-forward-96" d="M154.6,172.7c-0.3,0-0.6-0.2-0.7-0.5c-0.2-0.4,0-0.8,0.4-1c0,0,0,0,0,0l9.7-3.8c0.4-0.2,0.8,0,1,0.3&#10;&#9;&#9;s0,0.8-0.3,1c0,0-0.1,0-0.1,0l-9.7,3.8C154.8,172.7,154.7,172.7,154.6,172.7z"/>
</g>
</svg>